<svg width="125" height="49" viewBox="0 0 125 49" fill="none" xmlns="http://www.w3.org/2000/svg">
<g clip-path="url(#clip0_3101_14987)">
<path d="M16.6431 46.4585H16.252V41.2285H16.6431L18.232 45.3951L19.8208 41.2285H20.212V46.4585H19.8331V42.1873L18.3786 45.9529H18.0853L16.6431 42.135V46.4585Z" fill="url(#paint0_linear_3101_14987)"/>
<path d="M21.2754 45.0013L20.8451 46.4309H20.4746L22.0404 41.2009H22.4588L24.0246 46.4309H23.6182L23.1999 45.0013H21.2754ZM21.4189 44.4958H23.0326L22.2317 41.7587L21.4189 44.4958Z" fill="url(#paint1_linear_3101_14987)"/>
<path d="M24.6823 46.4662H24.2871V41.2362H24.6823L27.152 45.6642V41.2362H27.5471V46.4662H27.152L24.6823 42.0555V46.4662Z" fill="url(#paint2_linear_3101_14987)"/>
<path d="M28.6266 44.3009C28.6231 44.5415 28.6608 44.7803 28.7373 45.0017C28.803 45.1916 28.9024 45.3609 29.0281 45.4973C29.156 45.6249 29.3014 45.7232 29.4573 45.7878C29.7857 45.9197 30.1396 45.9197 30.468 45.7878C30.6206 45.7257 30.7619 45.627 30.8834 45.4973C31.0052 45.3603 31.0998 45.1908 31.1603 45.0017C31.2335 44.7791 31.2711 44.5411 31.2711 44.3009V41.1732H31.7142V44.318C31.7198 44.6286 31.6727 44.9372 31.5757 45.2239C31.4898 45.4706 31.3623 45.6919 31.2019 45.8733C31.0411 46.05 30.8526 46.1838 30.648 46.2664C30.4298 46.3594 30.2004 46.4057 29.9696 46.4031C29.7389 46.4041 29.5096 46.3579 29.2912 46.2664C29.0872 46.182 28.8989 46.0484 28.7373 45.8733C28.5762 45.6926 28.4487 45.4711 28.3635 45.2239C28.267 44.937 28.2198 44.6286 28.225 44.318V41.1732H28.6681L28.6266 44.3009Z" fill="url(#paint3_linear_3101_14987)"/>
<path d="M32.8022 44.9813L32.3776 46.4109H31.9766L33.5216 41.1809H33.9816L35.5266 46.4109H35.1255L34.7128 44.9813H32.8022ZM32.9437 44.4758H34.5358L33.7457 41.7387L32.9437 44.4758Z" fill="url(#paint4_linear_3101_14987)"/>
<path d="M37.3318 45.1667C37.4381 45.2864 37.5515 45.3926 37.6707 45.4842C37.7867 45.5672 37.908 45.6344 38.033 45.6847L38.3835 45.8016H38.7108C38.8386 45.8304 38.9687 45.8304 39.0965 45.8016C39.196 45.7577 39.2876 45.6836 39.3653 45.5845C39.4326 45.4984 39.4862 45.3927 39.5225 45.2745C39.5588 45.1564 39.5769 45.0285 39.5756 44.8994C39.5784 44.787 39.559 44.6757 39.5198 44.5783C39.4805 44.4808 39.4229 44.401 39.3536 44.348C39.1366 44.1882 38.9043 44.0756 38.6641 44.0139C38.4352 43.9402 38.212 43.8338 37.9979 43.6964C37.8505 43.6011 37.7129 43.4774 37.5888 43.3288C37.5031 43.2208 37.4387 43.0825 37.4019 42.9278C37.3862 42.7895 37.3862 42.6484 37.4019 42.5101C37.4005 42.3275 37.4282 42.1469 37.4829 41.9819C37.5375 41.8169 37.6177 41.6718 37.7174 41.5577C37.8276 41.4285 37.9548 41.332 38.0914 41.2737C38.2504 41.2043 38.416 41.1705 38.5823 41.1734H38.8978L39.2717 41.2737C39.4001 41.3183 39.5253 41.3798 39.6457 41.4575C39.7669 41.5376 39.8807 41.6386 39.9846 41.7582L39.8094 42.1592C39.7196 42.0587 39.6215 41.9746 39.5172 41.9086L39.1899 41.7415L38.8627 41.658H38.5939C38.3807 41.6377 38.1695 41.7265 37.9979 41.9086C37.9354 41.9812 37.8851 42.0729 37.8507 42.177C37.8163 42.2811 37.7987 42.3949 37.7992 42.5101C37.783 42.6146 37.783 42.723 37.7992 42.8275C37.8368 42.9352 37.8932 43.0273 37.9628 43.0949C38.0572 43.1899 38.1593 43.2684 38.2667 43.3288C38.4191 43.4111 38.5753 43.4781 38.7342 43.5293C38.9327 43.6008 39.1279 43.6901 39.3185 43.7967C39.4567 43.8694 39.5866 43.9708 39.7042 44.0974C39.7964 44.1948 39.8722 44.3204 39.9262 44.465C39.9752 44.6108 39.9992 44.7711 39.9963 44.9328C39.9954 45.128 39.9676 45.321 39.9145 45.5009C39.8619 45.6798 39.7821 45.8396 39.6808 45.9687C39.569 46.1114 39.4376 46.2195 39.2951 46.2862C39.1215 46.366 38.9399 46.4055 38.7575 46.4031C38.4915 46.3986 38.2276 46.3366 37.9745 46.2193C37.7008 46.0965 37.4466 45.8978 37.2266 45.6346L37.4019 45.2335L37.3318 45.1667Z" fill="url(#paint5_linear_3101_14987)"/>
<path d="M43.1462 46.398H42.7755V41.971H41.4551V41.4973H44.4551V41.971H43.1462V46.398Z" fill="url(#paint6_linear_3101_14987)"/>
<path d="M47.3701 41.4796V41.955H45.2808V43.5945H47.2729V44.07H45.2808V45.9226H47.3943V46.398H44.9043V41.4796H47.3701ZM46.3497 40.168H46.8235L46.3255 41.1353H45.9368L46.3497 40.168Z" fill="url(#paint7_linear_3101_14987)"/>
<path d="M51.1653 45.6483C51.0784 45.7755 50.9809 45.8878 50.8747 45.9829C50.7642 46.0829 50.6465 46.167 50.5236 46.2339C50.3979 46.2998 50.2683 46.3501 50.1362 46.3845C50.0033 46.4025 49.8695 46.4025 49.7366 46.3845C49.4832 46.3863 49.2321 46.318 48.998 46.1838C48.7728 46.0544 48.5673 45.867 48.3927 45.6316C48.2212 45.3979 48.0854 45.1191 47.9931 44.8118C47.8945 44.4829 47.8438 44.1304 47.8438 43.7744C47.8438 43.4184 47.8945 43.0659 47.9931 42.7371C48.0883 42.4319 48.2238 42.1538 48.3927 41.9172C48.5638 41.688 48.7652 41.5062 48.9859 41.3818C49.2155 41.2466 49.4628 41.1782 49.7124 41.181C49.8452 41.1637 49.979 41.1637 50.1119 41.181L50.5236 41.3316C50.6551 41.3957 50.781 41.4799 50.8989 41.5826C51.0124 41.6779 51.118 41.7901 51.2137 41.9172L50.9473 42.2518C50.8753 42.1486 50.7939 42.0587 50.7052 41.9841C50.605 41.9039 50.4996 41.8367 50.3904 41.7834L50.0514 41.6495H49.7245C49.5243 41.6463 49.326 41.7034 49.1433 41.8168C48.9664 41.9268 48.807 42.0839 48.674 42.2792C48.541 42.4744 48.4372 42.7039 48.3684 42.9545C48.2933 43.221 48.2563 43.5051 48.2595 43.7911C48.2592 44.0729 48.3003 44.3519 48.3805 44.611C48.4573 44.8611 48.5683 45.0883 48.7075 45.2802C48.8469 45.4716 49.0112 45.6248 49.1917 45.732C49.3748 45.8434 49.5729 45.9004 49.7729 45.8993H50.0998L50.4267 45.7655C50.5287 45.7138 50.6262 45.6464 50.7173 45.5646C50.8073 45.4861 50.8889 45.3904 50.9595 45.2802L51.2137 45.6483H51.1653Z" fill="url(#paint8_linear_3101_14987)"/>
<path d="M52.3229 46.4633H51.9277V41.2333H52.3229L54.7926 45.6613V41.2333H55.1877V46.4633H54.7926L52.3229 42.0526V46.4633Z" fill="url(#paint9_linear_3101_14987)"/>
<path d="M56.4255 41.1739V46.4039H55.9355V41.1739H56.4255Z" fill="url(#paint10_linear_3101_14987)"/>
<path d="M36.5545 41.2638V46.4938H36.0645V41.2638H36.5545Z" fill="url(#paint11_linear_3101_14987)"/>
<path d="M60.3118 45.6542C60.225 45.7813 60.1274 45.8936 60.0212 45.9888C59.9106 46.0887 59.793 46.1729 59.6701 46.2398C59.5444 46.3056 59.4147 46.356 59.2826 46.3903C59.1498 46.4084 59.0159 46.4084 58.883 46.3903C58.6296 46.3921 58.3785 46.3239 58.1445 46.1896C57.9192 46.0602 57.7137 45.8728 57.5391 45.6374C57.3676 45.4037 57.2318 45.125 57.1396 44.8176C57.041 44.4887 56.9902 44.1362 56.9902 43.7802C56.9902 43.4243 57.041 43.0718 57.1396 42.7429C57.2348 42.4377 57.3702 42.1597 57.5391 41.923C57.7103 41.6938 57.9117 41.512 58.1324 41.3876C58.362 41.2524 58.6093 41.1841 58.8589 41.1868C58.9918 41.1695 59.1256 41.1695 59.2585 41.1868L59.6701 41.3374C59.8016 41.4015 59.9274 41.4858 60.0454 41.5884C60.1589 41.6837 60.2645 41.7959 60.3602 41.923L60.0938 42.2577C60.0217 42.1545 59.9404 42.0645 59.8517 41.99C59.7515 41.9098 59.6461 41.8425 59.5369 41.7892L59.1979 41.6553H58.871C58.6708 41.6522 58.4724 41.7093 58.2898 41.8226C58.1129 41.9327 57.9534 42.0898 57.8204 42.285C57.6875 42.4802 57.5837 42.7097 57.5149 42.9604C57.4397 43.2268 57.4027 43.511 57.4059 43.7969C57.4056 44.0787 57.4467 44.3577 57.527 44.6168C57.6037 44.8669 57.7147 45.0942 57.8539 45.2861C57.9933 45.4774 58.1577 45.6307 58.3382 45.7378C58.5214 45.8492 58.7193 45.9062 58.9194 45.9051H59.2463L59.5732 45.7713C59.6752 45.7196 59.7727 45.6522 59.8638 45.5705C59.9539 45.492 60.0354 45.3962 60.1059 45.2861L60.3602 45.6542H60.3118Z" fill="url(#paint12_linear_3101_14987)"/>
<path d="M62.812 46.36C62.5426 46.3631 62.2755 46.2943 62.0259 46.1575C61.7882 46.0316 61.5718 45.8422 61.3895 45.6006C61.2124 45.3618 61.0687 45.0817 60.9653 44.7737C60.862 44.4514 60.8086 44.1039 60.8086 43.7527C60.8086 43.4014 60.862 43.0539 60.9653 42.7317C61.0666 42.4171 61.2104 42.1309 61.3895 41.8879C61.5718 41.6463 61.7882 41.4568 62.0259 41.331C62.5269 41.0631 63.0845 41.0631 63.5856 41.331C63.8232 41.4568 64.0397 41.6463 64.2219 41.8879C64.4012 42.1307 64.5451 42.4169 64.6461 42.7317C64.7523 43.05 64.8076 43.395 64.8083 43.7442C64.8126 44.0923 64.7616 44.4377 64.6586 44.7568C64.555 45.0646 64.4114 45.3447 64.2344 45.5837C64.052 45.825 63.8356 46.0143 63.5981 46.1406C63.3484 46.2774 63.0813 46.3462 62.812 46.3431V46.36ZM62.812 45.9043C63.0221 45.9048 63.2301 45.8474 63.4234 45.7356C63.8028 45.511 64.1057 45.1012 64.2718 44.588C64.3559 44.3273 64.3984 44.0455 64.3966 43.7611C64.397 43.4769 64.3545 43.1955 64.2718 42.9342C64.1068 42.4201 63.8035 42.0099 63.4234 41.7867C63.2262 41.6725 63.014 41.6136 62.7995 41.6136C62.585 41.6136 62.3728 41.6725 62.1756 41.7867C61.7917 42.0024 61.4867 42.415 61.3271 42.9342C61.2441 43.1954 61.2016 43.4768 61.2023 43.7611C61.2015 44.04 61.2441 44.3159 61.3271 44.5712C61.4113 44.8238 61.5298 45.0528 61.6765 45.2462C61.8198 45.4398 61.9892 45.5945 62.1756 45.7018C62.3688 45.8136 62.5768 45.8711 62.787 45.8706L62.812 45.9043Z" fill="url(#paint13_linear_3101_14987)"/>
<path d="M65.0486 45.0864C65.1549 45.2061 65.2683 45.3122 65.3875 45.4038C65.5035 45.4868 65.6248 45.554 65.7498 45.6044L66.1003 45.7213H66.4276C66.5554 45.7501 66.6854 45.7501 66.8132 45.7213C66.9127 45.6773 67.0044 45.6033 67.0821 45.5041C67.1494 45.4181 67.2029 45.3124 67.2392 45.1942C67.2755 45.076 67.2937 44.9481 67.2924 44.8191C67.2952 44.7067 67.2758 44.5954 67.2366 44.4979C67.1973 44.4005 67.1397 44.3207 67.0704 44.2677C66.8534 44.1079 66.621 43.9953 66.3808 43.9335C66.1519 43.8598 65.9287 43.7535 65.7147 43.6161C65.5672 43.5207 65.4296 43.3971 65.3056 43.2485C65.2199 43.1405 65.1555 43.0022 65.1187 42.8474C65.103 42.7091 65.103 42.5681 65.1187 42.4297C65.1173 42.2472 65.1449 42.0665 65.1996 41.9015C65.2542 41.7365 65.3345 41.5915 65.4342 41.4774C65.5444 41.3482 65.6716 41.2516 65.8082 41.1933C65.9672 41.1239 66.1327 41.0901 66.299 41.0931H66.6146L66.9885 41.1933C67.1169 41.238 67.2421 41.2995 67.3625 41.3772C67.4837 41.4573 67.5975 41.5583 67.7014 41.6779L67.5262 42.0789C67.4364 41.9784 67.3383 41.8942 67.234 41.8283L66.9067 41.6612L66.5795 41.5776H66.3107C66.0975 41.5574 65.8862 41.6462 65.7147 41.8283C65.6521 41.9008 65.6019 41.9926 65.5675 42.0967C65.5331 42.2008 65.5155 42.3146 65.516 42.4297C65.4998 42.5343 65.4998 42.6426 65.516 42.7472C65.5536 42.8549 65.61 42.947 65.6796 43.0145C65.774 43.1095 65.8761 43.1881 65.9835 43.2485C66.1359 43.3308 66.292 43.3977 66.4509 43.449C66.6495 43.5204 66.8446 43.6097 67.0353 43.7163C67.1734 43.7891 67.3034 43.8904 67.421 44.0171C67.5132 44.1145 67.589 44.24 67.643 44.3846C67.692 44.5304 67.716 44.6908 67.7131 44.8525C67.7122 45.0477 67.6844 45.2407 67.6313 45.4205C67.5787 45.5994 67.4989 45.7593 67.3976 45.8884C67.2857 46.0311 67.1544 46.1392 67.0119 46.2058C66.8383 46.2857 66.6567 46.3252 66.4743 46.3228C66.2083 46.3183 65.9444 46.2563 65.6913 46.139C65.4176 46.0161 65.1634 45.8175 64.9434 45.5542L65.1187 45.1532L65.0486 45.0864Z" fill="url(#paint14_linear_3101_14987)"/>
<path d="M70.659 44.9775L70.2287 46.407H69.8223L71.3881 41.177H71.8065L73.3723 46.407H72.9658L72.5475 44.9775H70.659ZM70.8024 44.4719H72.416L71.6152 41.7349L70.8024 44.4719Z" fill="url(#paint15_linear_3101_14987)"/>
<path d="M73.8648 44.2988C73.8613 44.5394 73.8991 44.7782 73.9756 44.9995C74.0413 45.1894 74.1407 45.3588 74.2664 45.4952C74.3943 45.6227 74.5397 45.7211 74.6956 45.7857C75.0241 45.9176 75.3779 45.9176 75.7063 45.7857C75.859 45.7236 76.0001 45.6249 76.1217 45.4952C76.2434 45.3582 76.3382 45.1886 76.3986 44.9995C76.4718 44.7769 76.5095 44.539 76.5094 44.2988V41.1711H76.9524V44.3159C76.9581 44.6264 76.911 44.935 76.814 45.2217C76.728 45.4684 76.6006 45.6898 76.4401 45.8712C76.2794 46.0478 76.0909 46.1816 75.8863 46.2642C75.6682 46.3573 75.4387 46.4036 75.2079 46.401C74.9772 46.4019 74.7479 46.3557 74.5294 46.2642C74.3255 46.1799 74.1372 46.0463 73.9756 45.8712C73.8145 45.6905 73.6869 45.4689 73.6017 45.2217C73.5052 44.9349 73.458 44.6264 73.4633 44.3159V41.1711H73.9064L73.8648 44.2988Z" fill="url(#paint16_linear_3101_14987)"/>
<path d="M79.1716 46.3768H78.801V41.6524H77.4805V41.1468H80.4805V41.6524H79.1716V46.3768Z" fill="url(#paint17_linear_3101_14987)"/>
<path d="M82.3412 46.3495C82.0719 46.3526 81.8048 46.2838 81.5552 46.147C81.3175 46.0212 81.1011 45.8317 80.9188 45.5901C80.7416 45.3513 80.598 45.0712 80.4946 44.7632C80.3913 44.441 80.3379 44.0934 80.3379 43.7422C80.3379 43.3909 80.3913 43.0435 80.4946 42.7212C80.5959 42.4067 80.7397 42.1205 80.9188 41.8775C81.1011 41.6358 81.3175 41.4464 81.5552 41.3205C82.0562 41.0526 82.6138 41.0526 83.1148 41.3205C83.3523 41.4468 83.5687 41.6362 83.7512 41.8775C83.9302 42.1205 84.0742 42.4067 84.1754 42.7212C84.2812 43.0397 84.3365 43.3846 84.3376 43.7337C84.3419 44.0819 84.2909 44.4272 84.1879 44.7463C84.0843 45.0541 83.9406 45.3343 83.7637 45.5732C83.5812 45.8145 83.3648 46.0039 83.1273 46.1301C82.8777 46.2669 82.6106 46.3357 82.3412 46.3326V46.3495ZM82.3412 45.8938C82.5514 45.8943 82.7594 45.8369 82.9526 45.7251C83.332 45.5005 83.6351 45.0907 83.8011 44.5775C83.8852 44.3168 83.9277 44.0351 83.9259 43.7506C83.9262 43.4664 83.8838 43.1851 83.8011 42.9237C83.6361 42.4096 83.3328 41.9994 82.9526 41.7762C82.7555 41.662 82.5432 41.6031 82.3287 41.6031C82.1143 41.6031 81.902 41.662 81.7049 41.7762C81.321 41.992 81.016 42.4046 80.8564 42.9237C80.7734 43.1849 80.731 43.4664 80.7317 43.7506C80.7309 44.0295 80.7734 44.3055 80.8564 44.5607C80.9406 44.8133 81.0591 45.0423 81.2058 45.2357C81.3491 45.4293 81.5185 45.584 81.7049 45.6913C81.8981 45.8032 82.1062 45.8606 82.3163 45.8601L82.3412 45.8938Z" fill="url(#paint18_linear_3101_14987)"/>
<path d="M85.3735 46.4585H84.9824V41.2285H85.3735L86.9624 45.3951L88.5513 41.2285H88.9424V46.4585H88.588V42.1873L87.1213 45.9529H86.828L85.3858 42.135L85.3735 46.4585Z" fill="url(#paint19_linear_3101_14987)"/>
<path d="M91.2865 46.3866C91.0172 46.3897 90.7502 46.3209 90.5005 46.1841C90.2629 46.0583 90.0464 45.8688 89.8642 45.6272C89.687 45.3884 89.5433 45.1083 89.4399 44.8003C89.3366 44.478 89.2832 44.1305 89.2832 43.7793C89.2832 43.428 89.3366 43.0806 89.4399 42.7583C89.5412 42.4437 89.6851 42.1576 89.8642 41.9145C90.0464 41.6729 90.2629 41.4834 90.5005 41.3576C91.0016 41.0897 91.5592 41.0897 92.0602 41.3576C92.2977 41.4839 92.514 41.6732 92.6965 41.9145C92.8756 42.1576 93.0195 42.4437 93.1207 42.7583C93.2265 43.0768 93.2818 43.4217 93.283 43.7708C93.2873 44.1189 93.2362 44.4643 93.1332 44.7834C93.0297 45.0912 92.8859 45.3713 92.709 45.6103C92.5265 45.8516 92.3101 46.041 92.0726 46.1672C91.823 46.304 91.5559 46.3728 91.2865 46.3697V46.3866ZM91.2865 45.9309C91.4967 45.9314 91.7048 45.874 91.898 45.7622C92.2774 45.5376 92.5804 45.1278 92.7464 44.6146C92.8305 44.3539 92.873 44.0721 92.8712 43.7877C92.8715 43.5035 92.8291 43.2221 92.7464 42.9608C92.5814 42.4467 92.2781 42.0365 91.898 41.8133C91.7008 41.6991 91.4886 41.6402 91.2741 41.6402C91.0597 41.6402 90.8474 41.6991 90.6503 41.8133C90.2664 42.029 89.9613 42.4416 89.8018 42.9608C89.7188 43.222 89.6763 43.5034 89.677 43.7877C89.6762 44.0666 89.7188 44.3426 89.8018 44.5978C89.886 44.8504 90.0044 45.0794 90.1511 45.2728C90.2944 45.4664 90.4639 45.6211 90.6503 45.7284C90.8435 45.8402 91.0515 45.8977 91.2616 45.8972L91.2865 45.9309Z" fill="url(#paint20_linear_3101_14987)"/>
<path d="M94.9119 46.4159H94.5412V41.6914H93.2207V41.1859H96.2207V41.6914H94.9119V46.4159Z" fill="url(#paint21_linear_3101_14987)"/>
<path d="M97.3572 41.1999V46.4299H96.8672V41.1999H97.3572Z" fill="url(#paint22_linear_3101_14987)"/>
<path d="M98.2136 41.1543L99.749 45.8612L101.271 41.1543H101.742L99.9779 46.3843H99.5065L97.7422 41.1543H98.2136Z" fill="url(#paint23_linear_3101_14987)"/>
<path d="M103.689 46.414C103.42 46.4171 103.152 46.3483 102.903 46.2115C102.665 46.0857 102.449 45.8963 102.266 45.6546C102.089 45.4159 101.946 45.1357 101.842 44.8277C101.739 44.5055 101.686 44.158 101.686 43.8067C101.686 43.4555 101.739 43.108 101.842 42.7858C101.944 42.4712 102.087 42.185 102.266 41.942C102.449 41.7003 102.665 41.5109 102.903 41.385C103.404 41.1172 103.961 41.1172 104.463 41.385C104.7 41.5109 104.917 41.7003 105.099 41.942C105.278 42.1847 105.422 42.471 105.523 42.7858C105.629 43.1041 105.685 43.4491 105.685 43.7983C105.69 44.1464 105.639 44.4917 105.536 44.8108C105.432 45.1186 105.288 45.3988 105.111 45.6378C104.929 45.879 104.713 46.0684 104.475 46.1946C104.225 46.3314 103.958 46.4003 103.689 46.3971V46.414ZM103.689 45.9583C103.899 45.9588 104.107 45.9015 104.3 45.7896C104.68 45.565 104.983 45.1552 105.149 44.642C105.233 44.3813 105.275 44.0996 105.274 43.8152C105.274 43.5309 105.231 43.2496 105.149 42.9883C104.984 42.4741 104.68 42.0639 104.3 41.8407C104.103 41.7265 103.891 41.6676 103.676 41.6676C103.462 41.6676 103.25 41.7265 103.053 41.8407C102.669 42.0565 102.364 42.4691 102.204 42.9883C102.121 43.2494 102.079 43.5309 102.079 43.8152C102.079 44.094 102.121 44.37 102.204 44.6252C102.288 44.8778 102.407 45.1068 102.554 45.3002C102.697 45.4939 102.866 45.6485 103.053 45.7558C103.246 45.8677 103.454 45.9251 103.664 45.9246L103.689 45.9583Z" fill="url(#paint24_linear_3101_14987)"/>
<path d="M106.084 45.1376C106.19 45.2573 106.303 45.3635 106.423 45.4551C106.539 45.5381 106.66 45.6053 106.785 45.6556L107.135 45.7725H107.463C107.591 45.8013 107.721 45.8013 107.848 45.7725C107.948 45.7286 108.04 45.6545 108.117 45.5554C108.185 45.4693 108.238 45.3636 108.274 45.2454C108.311 45.1273 108.329 44.9994 108.328 44.8703C108.33 44.7579 108.311 44.6466 108.272 44.5492C108.232 44.4517 108.175 44.3719 108.106 44.3189C107.889 44.1591 107.656 44.0465 107.416 43.9848C107.187 43.9111 106.964 43.8047 106.75 43.6673C106.602 43.572 106.465 43.4483 106.341 43.2997C106.255 43.1917 106.191 43.0534 106.154 42.8987C106.138 42.7604 106.138 42.6193 106.154 42.481C106.152 42.2984 106.18 42.1178 106.235 41.9528C106.289 41.7878 106.37 41.6427 106.469 41.5286C106.58 41.3994 106.707 41.3029 106.843 41.2446C107.002 41.1752 107.168 41.1414 107.334 41.1443H107.65L108.024 41.2446C108.152 41.2892 108.277 41.3507 108.398 41.4284C108.519 41.5085 108.633 41.6095 108.737 41.7291L108.561 42.1301C108.472 42.0296 108.373 41.9455 108.269 41.8795L107.942 41.7124L107.615 41.6289H107.346C107.133 41.6086 106.921 41.6974 106.75 41.8795C106.687 41.9521 106.637 42.0438 106.603 42.1479C106.568 42.252 106.551 42.3658 106.551 42.481C106.535 42.5855 106.535 42.6939 106.551 42.7984C106.589 42.9061 106.645 42.9982 106.715 43.0658C106.809 43.1608 106.911 43.2393 107.019 43.2997C107.171 43.382 107.327 43.449 107.486 43.5002C107.685 43.5716 107.88 43.6609 108.07 43.7676C108.209 43.8403 108.339 43.9417 108.456 44.0683C108.548 44.1657 108.624 44.2913 108.678 44.4359C108.727 44.5817 108.751 44.742 108.748 44.9037C108.747 45.0989 108.72 45.2919 108.666 45.4718C108.614 45.6507 108.534 45.8105 108.433 45.9396C108.321 46.0823 108.19 46.1904 108.047 46.2571C107.873 46.3369 107.692 46.3764 107.509 46.3741C107.243 46.3695 106.98 46.3075 106.726 46.1902C106.453 46.0674 106.199 45.8687 105.979 45.6055L106.154 45.2044L106.084 45.1376Z" fill="url(#paint25_linear_3101_14987)"/>
<path d="M20.4038 25.196C19.4474 24.3703 18.3785 23.6887 17.2301 23.1723C15.5514 22.4085 13.8194 21.7713 12.0482 21.2657C11.4354 21.1083 10.8339 20.909 10.2478 20.6691C9.84144 20.5166 9.45411 20.3164 9.0937 20.0725C8.84929 19.9142 8.64713 19.6972 8.5051 19.4409C8.39601 19.2194 8.34067 18.9748 8.34358 18.7274C8.3392 18.5222 8.39208 18.32 8.49623 18.1441C8.60037 17.9682 8.75148 17.8257 8.93211 17.7331C9.42577 17.4705 9.97935 17.3454 10.5363 17.3705C11.2059 17.3853 11.8733 17.4518 12.5329 17.5693C13.283 17.6863 14.0217 17.8501 14.8411 18.0489C15.6605 18.2478 16.4106 18.4817 17.1493 18.7624C17.8879 19.0432 21.4656 20.2246 22.135 20.5872L22.0311 13.487C22.0311 13.487 10.6864 9.60345 6.08153 11.3697C4.99777 11.7574 3.98984 12.3355 3.10395 13.0776C2.30208 13.7525 1.66933 14.6103 1.25742 15.5808C0.863768 16.5366 0.6636 17.5629 0.668825 18.5987C0.680235 19.4392 0.824394 20.2725 1.09583 21.0668C1.44749 22.0194 2.01242 22.8762 2.74618 23.57C3.77499 24.5253 4.94276 25.3144 6.20847 25.9095C8.01443 26.7925 9.91092 27.4712 11.8636 27.9331C12.7394 28.0913 13.5774 28.4168 14.3333 28.8923C14.5571 29.0534 14.7384 29.2678 14.8612 29.5167C14.984 29.7656 15.0445 30.0412 15.0373 30.3194C15.048 30.5828 14.9827 30.8436 14.8495 31.0701C14.7163 31.2965 14.5209 31.4787 14.2871 31.5944C13.7326 31.8902 13.1133 32.0391 12.4867 32.0272C10.8805 32.015 9.2839 31.7749 7.74343 31.3137C5.99352 30.7883 4.29701 30.095 2.67694 29.2432L-0.0351562 34.6942C0.941217 35.3291 1.96354 35.8883 3.02315 36.3669C4.06808 36.8328 5.14409 37.2237 6.24312 37.5366C7.29977 37.846 8.37539 38.0844 9.46302 38.2502C10.437 38.4009 11.4206 38.479 12.4059 38.4841C13.7871 38.4928 15.1625 38.3038 16.4915 37.9226C17.6424 37.5918 18.7199 37.0397 19.6652 36.2967C20.5442 35.6026 21.2449 34.7038 21.7079 33.6765C22.1952 32.5738 22.4356 31.3754 22.4119 30.1673C22.4172 29.2337 22.273 28.3053 21.9849 27.4184C21.6475 26.5564 21.1042 25.7927 20.4038 25.196Z" fill="url(#paint26_linear_3101_14987)"/>
<path d="M2.61914 29.2667H2.69994L2.78073 29.1029L2.61914 29.2667Z" fill="url(#paint27_linear_3101_14987)"/>
<path d="M23.2656 38.063H30.1902V15.1597C27.8506 14.8798 25.5356 14.4183 23.2656 13.7794V38.063Z" fill="url(#paint28_linear_3101_14987)"/>
<path d="M46.8105 26.0499L41.0401 15.8849C37.8415 15.8742 34.6465 15.6671 31.4727 15.265V38.063H38.3972V22.2716L45.3795 35.1387H48.2878L55.2701 22.2716V38.063H62.1947V14.2941C59.1299 14.9356 56.0192 15.3268 52.8927 15.4638L46.8105 26.0499Z" fill="url(#paint29_linear_3101_14987)"/>
<path d="M96.5288 31.6529H89.9504V9.01865C85.6803 9.56842 80.2676 10.7382 80.2676 10.7382C89.0156 13.37 89.5811 25.6054 83.0836 30.3662V38.063H103.13C99.7718 36.0394 97.6483 34.0274 96.5288 31.6529Z" fill="url(#paint30_linear_3101_14987)"/>
<path d="M84.3179 27.8396C85.076 26.8781 85.6619 25.7894 86.049 24.6228C86.4348 23.4698 86.6336 22.261 86.6376 21.0435C86.6401 19.8254 86.4411 18.6155 86.049 17.4641C85.1767 15.295 83.5793 13.5062 81.5366 12.4108L81.1788 12.2471C79.7129 11.7583 78.1741 11.5327 76.6317 11.5803C73.1001 11.7675 63.498 14.0251 63.498 14.0251V38.063H70.4226V31.0446H77.8434C79.0375 31.0656 80.2209 30.8137 81.3057 30.3077L81.6635 30.1205C82.688 29.545 83.5901 28.7698 84.3179 27.8396ZM79.413 22.4354C79.2982 22.8793 79.0918 23.2934 78.8073 23.6503C78.5228 24.0072 78.1667 24.2989 77.7626 24.5058C77.2896 24.7566 76.7614 24.8813 76.2277 24.8685H70.3072V17.6746H76.2277C76.7014 17.6366 77.1773 17.7145 77.6151 17.9018C78.053 18.089 78.44 18.3802 78.7437 18.7508C79.2682 19.4152 79.5568 20.2393 79.563 21.0902C79.5723 21.5395 79.5218 21.9881 79.413 22.4237V22.4354Z" fill="url(#paint31_linear_3101_14987)"/>
<path d="M123.811 13.7678C123.811 13.7678 119.76 -2.16394 87.6071 0.245703C60.1281 2.30443 41.651 17.7916 3.6582 5.12346C3.6582 5.12346 28.0904 20.4586 63.1749 13.0776C96.5744 6.05926 114.451 2.16406 123.811 13.7678Z" fill="url(#paint32_linear_3101_14987)"/>
<path d="M110.077 8.32848C107.125 8.32848 104.24 9.21553 101.786 10.8774C99.3323 12.5394 97.4196 14.9015 96.2902 17.6652C95.1608 20.4288 94.8653 23.4699 95.441 26.4038C96.0168 29.3377 97.438 32.0326 99.525 34.1478C101.612 36.263 104.271 37.7035 107.165 38.2871C110.06 38.8707 113.061 38.5712 115.787 37.4264C118.514 36.2817 120.845 34.3431 122.484 31.8559C124.124 29.3686 124.999 26.4445 124.999 23.4531C124.996 19.4428 123.423 15.5975 120.625 12.7618C117.827 9.92606 114.033 8.33157 110.077 8.32848ZM110.077 31.8518C108.438 31.8518 106.836 31.3592 105.473 30.4363C104.11 29.5135 103.048 28.2018 102.421 26.6671C101.794 25.1325 101.63 23.4438 101.95 21.8146C102.269 20.1854 103.058 18.6889 104.217 17.5144C105.376 16.3398 106.853 15.5399 108.46 15.2158C110.068 14.8917 111.734 15.0581 113.248 15.6938C114.762 16.3294 116.056 17.4059 116.967 18.787C117.877 20.1682 118.363 21.792 118.363 23.4531C118.392 24.5639 118.197 25.669 117.791 26.7011C117.384 27.7331 116.775 28.6706 116 29.4563C115.224 30.242 114.3 30.8596 113.281 31.2714C112.263 31.6833 111.173 31.8807 110.077 31.8518Z" fill="url(#paint33_linear_3101_14987)"/>
</g>
<defs>
<linearGradient id="paint0_linear_3101_14987" x1="18.232" y1="41.2285" x2="18.232" y2="46.4585" gradientUnits="userSpaceOnUse">
<stop stop-color="#1E72B8"/>
</linearGradient>
<linearGradient id="paint1_linear_3101_14987" x1="22.2496" y1="41.2009" x2="22.2496" y2="46.4309" gradientUnits="userSpaceOnUse">
<stop stop-color="#1E72B8"/>
</linearGradient>
<linearGradient id="paint2_linear_3101_14987" x1="25.9171" y1="41.2362" x2="25.9171" y2="46.4662" gradientUnits="userSpaceOnUse">
<stop stop-color="#1E72B8"/>
</linearGradient>
<linearGradient id="paint3_linear_3101_14987" x1="29.9696" y1="41.1732" x2="29.9696" y2="46.4032" gradientUnits="userSpaceOnUse">
<stop stop-color="#1E72B8"/>
</linearGradient>
<linearGradient id="paint4_linear_3101_14987" x1="33.7516" y1="41.1809" x2="33.7516" y2="46.4109" gradientUnits="userSpaceOnUse">
<stop stop-color="#1E72B8"/>
</linearGradient>
<linearGradient id="paint5_linear_3101_14987" x1="38.6116" y1="41.1732" x2="38.6116" y2="46.4032" gradientUnits="userSpaceOnUse">
<stop stop-color="#1E72B8"/>
</linearGradient>
<linearGradient id="paint6_linear_3101_14987" x1="42.9551" y1="41.4973" x2="42.9551" y2="46.398" gradientUnits="userSpaceOnUse">
<stop stop-color="#1E72B8"/>
</linearGradient>
<linearGradient id="paint7_linear_3101_14987" x1="46.1493" y1="40.168" x2="46.1493" y2="46.398" gradientUnits="userSpaceOnUse">
<stop stop-color="#1E72B8"/>
</linearGradient>
<linearGradient id="paint8_linear_3101_14987" x1="49.5287" y1="41.168" x2="49.5287" y2="46.398" gradientUnits="userSpaceOnUse">
<stop stop-color="#1E72B8"/>
</linearGradient>
<linearGradient id="paint9_linear_3101_14987" x1="53.5577" y1="41.2333" x2="53.5577" y2="46.4633" gradientUnits="userSpaceOnUse">
<stop stop-color="#1E72B8"/>
</linearGradient>
<linearGradient id="paint10_linear_3101_14987" x1="56.1805" y1="41.1739" x2="56.1805" y2="46.4039" gradientUnits="userSpaceOnUse">
<stop stop-color="#1E72B8"/>
</linearGradient>
<linearGradient id="paint11_linear_3101_14987" x1="36.3095" y1="41.2638" x2="36.3095" y2="46.4938" gradientUnits="userSpaceOnUse">
<stop stop-color="#1E72B8"/>
</linearGradient>
<linearGradient id="paint12_linear_3101_14987" x1="58.6752" y1="41.1739" x2="58.6752" y2="46.4039" gradientUnits="userSpaceOnUse">
<stop stop-color="#1E72B8"/>
</linearGradient>
<linearGradient id="paint13_linear_3101_14987" x1="62.8086" y1="41.1301" x2="62.8086" y2="46.3601" gradientUnits="userSpaceOnUse">
<stop stop-color="#1E72B8"/>
</linearGradient>
<linearGradient id="paint14_linear_3101_14987" x1="66.3284" y1="41.0929" x2="66.3284" y2="46.3229" gradientUnits="userSpaceOnUse">
<stop stop-color="#1E72B8"/>
</linearGradient>
<linearGradient id="paint15_linear_3101_14987" x1="71.5973" y1="41.177" x2="71.5973" y2="46.407" gradientUnits="userSpaceOnUse">
<stop stop-color="#1E72B8"/>
</linearGradient>
<linearGradient id="paint16_linear_3101_14987" x1="75.2079" y1="41.1711" x2="75.2079" y2="46.4011" gradientUnits="userSpaceOnUse">
<stop stop-color="#1E72B8"/>
</linearGradient>
<linearGradient id="paint17_linear_3101_14987" x1="78.9805" y1="41.1468" x2="78.9805" y2="46.3768" gradientUnits="userSpaceOnUse">
<stop stop-color="#1E72B8"/>
</linearGradient>
<linearGradient id="paint18_linear_3101_14987" x1="82.3379" y1="41.1196" x2="82.3379" y2="46.3496" gradientUnits="userSpaceOnUse">
<stop stop-color="#1E72B8"/>
</linearGradient>
<linearGradient id="paint19_linear_3101_14987" x1="86.9624" y1="41.2285" x2="86.9624" y2="46.4585" gradientUnits="userSpaceOnUse">
<stop stop-color="#1E72B8"/>
</linearGradient>
<linearGradient id="paint20_linear_3101_14987" x1="91.2832" y1="41.1567" x2="91.2832" y2="46.3867" gradientUnits="userSpaceOnUse">
<stop stop-color="#1E72B8"/>
</linearGradient>
<linearGradient id="paint21_linear_3101_14987" x1="94.7207" y1="41.1859" x2="94.7207" y2="46.4159" gradientUnits="userSpaceOnUse">
<stop stop-color="#1E72B8"/>
</linearGradient>
<linearGradient id="paint22_linear_3101_14987" x1="97.1122" y1="41.1999" x2="97.1122" y2="46.4299" gradientUnits="userSpaceOnUse">
<stop stop-color="#1E72B8"/>
</linearGradient>
<linearGradient id="paint23_linear_3101_14987" x1="99.7422" y1="41.1543" x2="99.7422" y2="46.3843" gradientUnits="userSpaceOnUse">
<stop stop-color="#1E72B8"/>
</linearGradient>
<linearGradient id="paint24_linear_3101_14987" x1="103.686" y1="41.1841" x2="103.686" y2="46.4141" gradientUnits="userSpaceOnUse">
<stop stop-color="#1E72B8"/>
</linearGradient>
<linearGradient id="paint25_linear_3101_14987" x1="107.364" y1="41.1441" x2="107.364" y2="46.3741" gradientUnits="userSpaceOnUse">
<stop stop-color="#1E72B8"/>
</linearGradient>
<linearGradient id="paint26_linear_3101_14987" x1="11.1892" y1="10.9092" x2="11.1892" y2="38.4844" gradientUnits="userSpaceOnUse">
<stop stop-color="#1E72B8"/>
</linearGradient>
<linearGradient id="paint27_linear_3101_14987" x1="2.69994" y1="29.1029" x2="2.69994" y2="29.2667" gradientUnits="userSpaceOnUse">
<stop stop-color="#1E72B8"/>
</linearGradient>
<linearGradient id="paint28_linear_3101_14987" x1="26.7279" y1="13.7794" x2="26.7279" y2="38.063" gradientUnits="userSpaceOnUse">
<stop stop-color="#1E72B8"/>
</linearGradient>
<linearGradient id="paint29_linear_3101_14987" x1="46.8337" y1="14.2941" x2="46.8337" y2="38.063" gradientUnits="userSpaceOnUse">
<stop stop-color="#1E72B8"/>
</linearGradient>
<linearGradient id="paint30_linear_3101_14987" x1="91.6989" y1="9.01865" x2="91.6989" y2="38.063" gradientUnits="userSpaceOnUse">
<stop stop-color="#1E72B8"/>
</linearGradient>
<linearGradient id="paint31_linear_3101_14987" x1="75.0679" y1="11.5741" x2="75.0679" y2="38.063" gradientUnits="userSpaceOnUse">
<stop stop-color="#1E72B8"/>
</linearGradient>
<linearGradient id="paint32_linear_3101_14987" x1="63.7346" y1="-0.00246429" x2="63.7346" y2="15.0864" gradientUnits="userSpaceOnUse">
<stop stop-color="#1E72B8"/>
</linearGradient>
<linearGradient id="paint33_linear_3101_14987" x1="110.077" y1="8.32848" x2="110.077" y2="38.5777" gradientUnits="userSpaceOnUse">
<stop stop-color="#1E72B8"/>
</linearGradient>
<clipPath id="clip0_3101_14987">
<rect width="125" height="49" fill="white"/>
</clipPath>
</defs>
</svg>
